/* XPM */
static char *result[] = {
/* columns rows colors chars-per-pixel */
"64 64 240 2 ",
"   c #3E1E13",
".  c #3F231C",
"X  c #3A2A2F",
"o  c #4B1C0D",
"O  c #571B07",
"+  c #471E14",
"@  c #551E14",
"#  c #53230D",
"$  c #482318",
"%  c #532313",
"&  c #6F311C",
"*  c #421B20",
"=  c #472624",
"-  c #4B2D30",
";  c #573B39",
":  c #683729",
">  c #753825",
",  c #663D38",
"<  c #753D33",
"1  c #5C413E",
"2  c #734635",
"3  c #383B4A",
"4  c #4D3C46",
"5  c #334551",
"6  c #3A5364",
"7  c #494749",
"8  c #564549",
"9  c #494A58",
"0  c #534F5A",
"q  c #674A49",
"w  c #784A46",
"e  c #70514C",
"r  c #6C5759",
"t  c #765657",
"y  c #485968",
"u  c #565B69",
"i  c #685B67",
"p  c #49616B",
"a  c #5A636C",
"s  c #4A6677",
"d  c #58677A",
"f  c #666B7A",
"g  c #756A75",
"h  c #893D2A",
"j  c #953D28",
"k  c #8C3E31",
"l  c #864327",
"z  c #8B442C",
"x  c #97442B",
"c  c #894838",
"v  c #964735",
"b  c #8B5035",
"n  c #9B553A",
"m  c #B0552B",
"M  c #A84D37",
"N  c #A7543B",
"B  c #B7593C",
"V  c #AF613D",
"C  c #B7653E",
"Z  c #BD633D",
"A  c #C45C38",
"S  c #CC5E3A",
"D  c #CA632D",
"F  c #C96435",
"G  c #C5643C",
"H  c #CB633B",
"J  c #D1693C",
"K  c #D77739",
"L  c #884C47",
"P  c #924A42",
"I  c #85534A",
"U  c #905A52",
"Y  c #A65A42",
"T  c #B85D45",
"R  c #B05F5C",
"E  c #946650",
"W  c #99645A",
"Q  c #AC6449",
"!  c #BC6344",
"~  c #B86748",
"^  c #BE734E",
"/  c #A86758",
"(  c #B66953",
")  c #BA7759",
"_  c #885968",
"`  c #965F65",
"'  c #8A696B",
"]  c #986669",
"[  c #8A6A76",
"{  c #976D75",
"}  c #8A7479",
"|  c #987478",
" . c #B87A66",
".. c #A97771",
"X. c #C65F42",
"o. c #C36444",
"O. c #C26943",
"+. c #C86548",
"@. c #D26842",
"#. c #CA774A",
"$. c #D87944",
"%. c #C66D52",
"&. c #C77857",
"*. c #D67556",
"=. c #93817D",
"-. c #BA8567",
";. c #B2887B",
":. c #C6835C",
">. c #C78665",
",. c #CF8C72",
"<. c #CB997C",
"1. c #D69878",
"2. c #CEA37D",
"3. c #366B8D",
"4. c #376D96",
"5. c #38759C",
"6. c #2F77A5",
"7. c #3678A7",
"8. c #287EB3",
"9. c #3B7BB2",
"0. c #496C87",
"q. c #556D87",
"w. c #44718D",
"e. c #587289",
"r. c #447597",
"t. c #527696",
"y. c #70738F",
"u. c #797789",
"i. c #777B98",
"p. c #4379A5",
"a. c #407BB3",
"s. c #6D7CA5",
"d. c #7A7FA4",
"f. c #89798A",
"g. c #927A87",
"h. c #857C97",
"j. c #A87F83",
"k. c #2C84B8",
"l. c #3683B5",
"z. c #758395",
"x. c #78839B",
"c. c #5189B1",
"v. c #5D94BD",
"b. c #6887A6",
"n. c #7687A7",
"m. c #6A88B4",
"M. c #6D91B3",
"N. c #7495B7",
"B. c #378FC6",
"V. c #3EB5F4",
"C. c #33BCF3",
"Z. c #3BBCF6",
"A. c #35B6FA",
"S. c #3CB6FD",
"D. c #36BDFD",
"F. c #3BBCFE",
"G. c #4D9BCE",
"H. c #589AC6",
"J. c #469CD5",
"K. c #6699C6",
"L. c #669CD3",
"P. c #56A0CD",
"I. c #49A4DA",
"U. c #5AA7DA",
"Y. c #73A5CA",
"T. c #64A5D6",
"R. c #7CAFDA",
"E. c #7BB4DA",
"W. c #509FE1",
"Q. c #4AACE7",
"!. c #5DAEE6",
"~. c #4CB5EE",
"^. c #56B4EB",
"/. c #44B5F3",
"(. c #4BB5F2",
"). c #43B9F6",
"_. c #4DB9F5",
"`. c #43B6FC",
"'. c #49B5FB",
"]. c #42BBFD",
"[. c #4BBBFB",
"{. c #52B4F3",
"}. c #56BAF7",
"|. c #6AB5E7",
" X c #73B7E7",
".X c #67BEF7",
"XX c #3CC2F7",
"oX c #35C0FC",
"OX c #3BC1FD",
"+X c #41C2FF",
"@X c #56C4FE",
"#X c #75C4EF",
"$X c #68C7FC",
"%X c #76C8F9",
"&X c #74D4FF",
"*X c #7CD9FF",
"=X c #87859A",
"-X c #988796",
";X c #979093",
":X c #B5918A",
">X c #BDA68F",
",X c #9196AA",
"<X c #A791A8",
"1X c #9AA5B5",
"2X c #B0A7A9",
"3X c #CC8D86",
"4X c #C69785",
"5X c #CC9D83",
"6X c #CB9D8C",
"7X c #D59B86",
"8X c #CB9E93",
"9X c #C7A487",
"0X c #CCA48C",
"qX c #D3A387",
"wX c #C8A594",
"eX c #D3A491",
"rX c #C4A9A2",
"tX c #8BA7CA",
"yX c #8CB4D5",
"uX c #A6B3D0",
"iX c #86BCE5",
"pX c #96BEF1",
"aX c #8BC3EA",
"sX c #8ACBFB",
"dX c #97CBF9",
"fX c #83D4FF",
"gX c #8BD4FF",
"hX c #84D9FF",
"jX c #8BDAFF",
"kX c #94D4FE",
"lX c #92DBFF",
"zX c #9BD8FE",
"xX c #B5CCE9",
"cX c #A7CDF9",
"vX c #A5D7FC",
"bX c #B6DAFD",
"nX c #8CE1FF",
"mX c #A8E4FF",
"MX c #B1E3FF",
"NX c #CCD4EA",
/* pixels */
"F.F.].S.`.S.F.F.OXD.OXC.XXXXF.D.oXOXOXZ.OX].].].F.S.F.].F.S.S.].OXF.F.S.F.oXoXoXZ.Z.F.oXoXoXD.S.F.F.F.F.F.F.F.F.F.F.F.F.F.F.F.F.",
"Z.F.F.F.].F.Z.OXS.D.oXD.XXC.F.D.F.oXD.Z.Z.F.F.].F.F.S.F.OXS.F.F.F.F.F.S.F.D.oXoX].F.).Z.oXD.F.F.F.F.F.F.F.F.F.F.F.F.F.F.F.F.F.F.",
"oXoXF.F.F.F.F.F.F.F.F.D.Z.Z.].S.F.oXF.S.F.F.F.F.D.D.D.D.F.A.+XF.Z.C.+X].].S.F.F.].).).F.oXZ.F.F.F.F.F.F.F.F.F.F.F.F.F.F.F.F.F.F.",
"oXF.S.F.F.F.).].F.F.D.F.Z.Z.F.S.F.D.F.F.F.F.F.F.oXD.OXD.D.F.Z.C.XXA.F.].`.].].`.].].F.F.F.F.F.Z.F.F.F.F.F.F.F.F.F.F.F.F.F.F.F.F.",
"Z.F.F.].].].].F.S.F.S.OXF.Z.F.F.Z.Z.).F.].].F.S.F.D.D.D.D.OXZ.Z.D.OXZ.F.S.].].F.S.F.F.F.F.`.].].F.F.F.F.F.F.F.F.F.F.F.F.F.F.F.F.",
"Z.D.F.F.`.F.].F.F.S.F.].).[.(.{.~.^.^.^.{.{.(.(./.).Z.C.].[./.[.].+X).Z.].)./.[.F.D.oXF.`.`.`.].F.F.F.F.F.F.F.F.F.F.F.F.F.F.F.F.",
"oXoXF.oXZ.F.F.F.+XS.@X}.}..XU.T.L.T.K.K.L.L.L.L.U. X#X#X#XG.J.W.J.I.I.J..X}.$X^.).XXZ.F.].`.F.F.F.F.F.F.F.F.F.F.F.F.F.F.F.F.F.F.",
"oXD.oXF.F.Z.Z.F.F.S.$XfXfXsXK.m.m.s.s.s.s.s.b.m.m.dXmXmXkX7.a.7.9.7.r.l.#XfXjX*X).Z.oXF.F.F.F.D.F.F.F.F.F.F.F.F.F.F.F.F.F.F.F.F.",
"].F.].F.F.Z.Z.D.F.F.$XhXlXdXn.x.h.d.d.y.u.h.i.n.b.xXvXbXcX4.p.p.p.r.r.r.#XlXgX*X'.D.D.F.F.S.D.oXD.F.F.F.F.F.F.F.F.F.F.F.F.F.F.F.",
"`.].F.F.Z.D.XXF.D.).#XsXdXxX;Xg.g.g.[ { ] { | -Xf.NXNXNXxXe.q.q.q.q.q.t.iXkXkXfX'.S.D.D.D.D.D.D.D.F.F.F.F.F.F.F.F.F.F.F.F.F.F.F.",
"F.F.F.oXoXoXoXD.D./.T.tXtX1X-X . . .&.#.^ ^ ) ) ..g.-X<X-Xi g r t t t i b.K.K.W.`.F.F.OXF.F.XXXXF.F.F.F.F.F.F.F.F.F.F.F.F.F.F.F.",
"S.F.oXoXoXoXF.F.OX/.H.b.h.g. .&.#.#.$.$.K K :.#.>.] _ _ _ w w b c P L r d r.5.c.'.S.F.Z.Z.Z.XXC.Z.F.F.F.F.F.F.F.F.F.F.F.F.F.F.F.",
"`.].S.D.oXF.F.F.F._.K.x.h.g. .*.K K K K K K $.&. .W U _ ] L c v v b L t d t.5.l.(.`.).Z.].].].].F.F.F.F.F.F.F.F.F.F.F.F.F.F.F.F.",
"F.F.D.XXZ.F.F.].S.}.v.n.h.g.&.$.K K K K :.$.&.&. .W U U I l x x x h v w d w.w.p.!.'._.).`.F.F.F.F.F.F.F.OXF.F.F.F.F.F.F.F.F.F.F.",
"D.D.oXoXF.F.F.`.S.{.v.i.u.{ &.K $.K F G D j & O % ;.wX5X1.~ B T N x v I u 6 s w.kXjXfX$X[.].F.D.F.F.F.F.F.F.F.F.F.F.F.F.F.F.F.F.",
"F.D.oXXXS.F.].`.S.}.m.i.u.{ *.$.$.@.S o.o.h @ = $ ;.9X2.,.~ @.o.B x x c r y y 0.cXzXjX%X'.S.D.oXD.F.F.F.F.F.F.F.F.F.F.F.F.F.F.F.",
"D.F.oXF.F.F.].].F._.K.y.f.] *.$.$.J S @.T h @ + = ;.9X2.1.~ +.S B j x b r y y 0.vXzXkXsX{./.V.+XF.F.F.F.F.F.F.OXF.F.F.F.F.F.F.F.",
"S.D.F.D.F.F.`.F.Z.~.K.s.h.{ %.J K J H X.X.n 2 q 2 :X9X2.2.n M B M M m P q 9 9 s tX XR. X.X$X@XF.F.F.F.F.F.F.F.F.F.F.F.F.F.F.F.F.",
"F.F.F.F.F.F.F.].F.(.L.d.h.g.( H D D S F O.:.2.9X>X0X>X>X<.c h j M +.! ( - - X 3 0.r.r.L.sX*X*X@X].F.F.F.F.F.F.F.F.F.F.F.F.F.F.F.",
"F.F.oXF.F.F.`.F.S.(.L.m.d.g.R o.S F G G ~ :.qX9X0X9X>X9X4Xc h x M T T ( : - - X a q.0.K.zXgXhX{.).F.F.F.F.F.F.F.F.F.F.F.F.F.F.F.",
"S.F.D.F.F.F.].F.OX/.T.m.d.-XW ( %.X.! V ~ :.qX9XqX2.2.5X,.k j x M T ( Q & # = ; i y.q.N.dXdXsX$X).F.F.F.F.F.F.F.F.F.F.F.F.F.F.F.",
"F.Z.OXD.F.S.F.F.F.).!.iXyXuX{ R R ( ,.,.,.<.5X9X<.>.:.&.*.N B B M h h > 2 > < < t i u e.K.K.P.U.).F.F.F.F.F.F.F.F.F.F.F.F.F.F.F.",
"F.F.F.F.F.F.F.S.S.].%XzXcXxXg.` ` { eX5X0X9XwXeX7X^ T X.%.X.O.Z l O o # h k k P L w t u t.7.7.I.).F.F.F.F.F.F.F.F.F.F.F.F.F.F.F.",
"F.F.F.F.F.F.D.F.D.[.$XkXzXcXh.[ g.j.eX<.5X9XwX0X7X( X.@.X.X.G Z z # $ o h M j v P c I i q.p.6.I.).F.F.F.F.F.F.F.F.F.F.F.F.F.F.F.",
"F.F.Z.OXF.F.S.F.D.].$XhXlXdX=X[ _ j.3X1.1.eX6X6X7X%.H S S @.A ! z % . $ 2 x x x x b c r e.p.7.Q.[.F.F.F.F.F.F.F.F.F.F.F.F.F.F.F.",
"F.F.D.F.].F.F.D.OXF._.{.^.|.m.h.f.{ ) +.Q Y c L x T @.S F H F o.c + . $ n O.o.B z z b t e.r.7.Q.`.F.F.F.F.F.F.F.F.F.F.F.F.F.F.F.",
"F.Z.F.F.F.].D.F.F.F.).~.(.!.m.d.=X{ R +.X.N k z z T A S J A S ! c + = $ Y X.X.X.n c c e e.7.7.I.).F.F.F.F.F.F.F.F.F.F.F.F.F.F.F.",
"F.F.oXF.].F.oXD.OXF.Z.)./.Q.K.d.z.f./ ( R Y k c h T +.X.O.Z +.o.c o   o Y @.X.T z w I r q.7.l.I.).F.F.F.F.F.F.F.F.F.F.F.F.F.F.F.",
"F.F.F.F.F.F.oXoXZ.S.Z.+X+X_.T.K.n.,X| ..] / E Y E b Y P n b N N h & > & B A A T 2 e r g M.v.v.I.).F.F.F.F.F.F.F.F.F.F.F.F.F.F.F.",
"F.F.F.F.].F.D.oXOX+XZ.C.A.).sXcXcXuXz.} } :XwXeX5X& o % # # # O h ~ ( ~ A @.H Q e 9 0 =XbXMXlX#X).S.F.F.F.F.F.F.F.F.F.F.F.F.F.F.",
"F.F.F.D.].].F.D.S.F.Z.oXoX].gXcXvXpXn.i.z.;X>X9XwX, $ *   . = # h ! O.A S J H Y q y y N.bXbXmX|./.F.F.F.F.F.F.F.F.F.F.F.F.F.F.F.",
"F.F.S.F.F.S.D.D.F.F.Z.oXoXF.*XkXzXpXc.b.z.;X2X>X>X; * = $   $ # l ! Z G G A G / q 0 9 =XbXvXmX#X~.).].F.F.F.F.F.F.F.F.F.F.oXF.D.",
"F.F.F.F.F.F.F.OXF.F.OXD.S.OX@X$X$X.X|.yXyX,X,X;X;X=.' E E l z z Q :.>.>.:.:.>.>.c 2 e g N.Y.H.#X%X$X$X].F.S.S.F.F.].F.F.S.F.oXF.",
"F.F.F.F.F.F.F.F.F.F.F.F.F.D.D.].[.}.fXkXcXtXb.i.u.2X>XeX1.~ Z ~ -.2.qX5XqX2.7X<.c P w r 0.5.4.E.gXhX*X_.[.F.OX].].F.F.F.F.oXF.oX",
"F.F.F.F.F.F.F.F.F.F.F.F.F.F.Z.F.[.~.nXgXzXtXb.i.g 2X>X6X1.~ ! ~ -.9X0X6X0X8XeX4XP P L r s 3.3.aXkXgX*X(.].D.F.A.F.].F.F.F.D.F.D.",
"F.F.F.F.F.F.F.F.F.F.F.F.F.F.F.F.)._.*XfXsXR.b.b.z.1X2XrX5X/ ( ( -.4XeX0X6X7X7X3Xv v P e a e.w.yXkXgX&X[.].S.+X+XF.F.F.F.F.F.oXF.",
"F.F.F.F.F.F.F.F.OXF.F.S.F.F.S.F.Z.F.[.}..X.XsXdXaXN.z.z.g.{ ] ` ;.7XeX7X) ~ ~ +.A B ~ n 1 7 5 s r.l.B.Q.F.F.A.Z.F.F.F.F.D.D.F.F.",
"F.F.F.F.F.F.F.F.F.F.F.F.OXF.F.F.OX+XS.`.{.$XgXlXmXv.M.M.i.u.[ { ..6X8X7X%.o.F H G G @.n : 8 7 s w.6.8.~.].F.A.OXF.Z.F.F.F.F.F.F.",
"F.F.F.F.F.F.F.F.F.F.OXF.F.F.OXF.Z.F.Z.S./.@XhXgXnXv.c.b.x.u.} ] :X8XeXeX%.F F F D G G n > 1 8 u w.5.8.(.[.F.A.F.XXF.F.F.F.F.F.F.",
"F.F.F.F.F.F.F.F.F.F.F.F.D.F.S.F.F.F.F.F.Z.@X&X&X*XT.H.v.N.n.=X-X-X:X:X3X%.D J m m B N b > , ; a w.7.k.Q.F.S.OXD.F.Z.F.F.F.F.F.].",
"F.F.F.F.F.F.F.F.F.F.F.F.F.F.F.F.F.Z.OXF.S.].).(._.~.^.!.|.vXcXxX2Xg ' ` ~ B G C > > > > , 8 ; a w.5.8.~.).F.D.oXF.XXF.F.F.F.F.].",
"F.F.F.F.F.F.F.F.F.F.F.F.F.F.F.F.F.F.D.F.D.F.F.]./././.(.}.nXzXbX1Xu.} ] ( ! ! Q & < < ; ; ; 7 a w.6.8./.[.F.D.F.F.F.F.F.F.F.F.].",
"F.F.F.F.F.F.F.F.F.F.F.F.F.F.F.F.OXD.oXD.D.F.F.].F.+X)./.}.nXnXzXtXy.u.' / o.T T > : ; , 8 8 7 p 3.7.k.Q.A.F.D.F.Z.F.F.F.F.F.].F.",
"F.F.F.F.F.F.F.F.F.F.F.F.F.F.F.D.F.D.F.D.D.F.F.Z.Z.F.+X/._.$X&X#XY.e.e.i I x v v > , 8 8 0 y p b.Y.T.!._.].OXOXS.F.F.F.F.F.F.F.F.",
"F.F.F.F.F.F.F.F.F.F.F.F.F.F.F.F.F.F.Z.Z.].].F.F.D.F.S.F.V._.).~.G.5.w.f 8 : : > : ; 1 6 s w.3.E.lXjX&X_.[.A.F.S.].F.F.F.F.F.F.F.",
"F.F.F.F.F.F.F.F.F.F.F.F.F.F.F.F.F.OX).).).Z.F.F.OXF.F.OXF.F.F.).B.6.3.e.0 8 , , , 1 1 6 s 5.3.aXlXhX*X/.F.A.F.F.F.].F.F.F.F.F.F.",
"F.F.F.F.F.F.F.F.F.F.F.F.F.F.F.D.oXF.F.).).Z.F.F.D.D.S.F.F.S.F.].B.l.5.3.6 9 7 4 1 7 7 p 3.4.7.E.gXhX&X[.].F.F.F.`.F.].F.F.oXF.Z.",
"F.F.F.F.F.F.F.F.F.F.F.F.F.F.F.F.D.oXF.F.].F.S.F.D.F.F.F.OXF.OX`.$XsXsXaXt.s q.d a p s b.aXgXaX|.|.^.}.).F.F.A.].F.].F.F.F.F.F.S.",
"F.F.F.F.F.F.F.F.F.F.F.F.F.F.F.F.D.F.F.F.F.F.F.F.D.F.F.F.F.F.S.).$XgXgXkXc.4.r.r.w.3.5.K.kXkXgX|.~.].).F.F.F.F.F.F.F.F.F.F.F.F.F.",
"F.F.F.F.F.F.F.F.F.F.F.F.D.F.F.F.F.F.F.F.F.F.F.F.F.F.F.F.F.F.F.]..XfXfXfXc.6.5.5.5.5.7.H.gXfXfX.XZ.Z.F.F.F.F.F.F.F.F.F.F.F.F.F.F.",
"F.F.F.F.F.F.F.F.F.F.F.F.F.F.F.F.F.F.F.F.F.F.F.F.F.F.F.F.F.F.F.F.@X*X&X&XB.k.k.k.k.k.B.J.&X&X&X@XF.F.F.F.F.F.F.F.F.F.F.F.F.F.F.F.",
"F.F.F.F.F.F.F.F.F.F.F.F.F.F.F.F.F.F.F.F.F.F.F.F.F.F.F.F.F.F.F.F./.'.).@X_.).{._.~.~.(.(.[././.V.].F.F.F.F.F.F.F.F.F.F.F.F.F.F.F.",
"F.F.F.F.F.F.F.F.F.F.F.F.F.F.F.F.F.F.F.F.F.F.F.F.F.F.F.F.F.F.F.F.].F.F.S.].].].].+X].+X].F.].F.[.F.F.F.F.F.F.F.F.F.F.F.F.F.F.F.F.",
"F.F.F.F.F.F.F.F.F.F.F.F.F.F.F.F.F.F.F.F.F.F.F.F.F.F.F.F.F.F.F.F.S.S.F.S.F.S.F.F.OXS.F.S.OXF.F.F.F.F.F.F.F.F.F.F.F.F.F.F.F.F.F.F.",
"F.F.F.F.F.F.F.F.F.F.F.F.F.F.F.F.F.OXF.F.F.F.F.F.F.F.F.F.F.F.F.F.S.D.OXF.F.D.S.D.F.F.D.F.F.F.F.F.F.F.F.F.F.F.F.F.F.F.F.F.F.F.F.F.",
"F.F.F.F.F.F.F.F.F.F.F.F.F.F.F.F.F.F.F.F.F.F.F.F.F.F.F.F.F.F.F.F.F.Z.F.F.D.D.F.D.D.OXF.F.F.Z.].F.F.F.F.F.F.F.F.F.F.F.F.F.F.F.F.F.",
"F.F.F.F.F.F.F.F.F.F.F.F.F.F.F.F.F.F.F.F.F.F.F.F.F.F.F.F.F.F.F.F.F.F.].F.F.F.F.Z.F.F.F.F.F.F.F.F.F.F.F.F.F.F.F.F.F.F.F.F.F.F.F.F.",
"F.F.F.F.F.F.F.F.F.F.F.F.F.F.F.F.F.F.F.F.F.F.F.F.F.F.F.F.F.F.F.F.F.].Z.].F.F.F.F.F.F.F.F.F.F.).].F.F.F.F.F.F.F.F.F.F.F.F.F.F.F.F.",
"F.F.F.F.F.F.F.F.F.F.F.F.F.F.F.F.F.F.F.F.F.F.F.F.F.F.F.F.F.F.F.F.F.F.F.F.F.F.F.F.D.F.F.F.F.F.F.F.F.F.F.F.F.F.F.F.F.F.F.F.F.F.F.F.",
"F.F.F.F.F.F.F.F.F.F.F.F.F.OXF.F.F.F.F.F.F.F.F.F.F.F.F.F.F.F.F.F.F.F.F.F.F.F.D.F.F.D.F.F.F.F.F.F.F.F.F.F.F.F.F.F.F.F.F.F.F.F.F.F.",
"F.F.F.F.F.F.F.F.F.F.F.F.F.F.F.F.F.F.F.F.F.F.F.F.F.F.F.F.F.F.F.F.D.F.D.F.F.D.F.D.F.F.D.F.F.F.F.F.F.F.F.F.F.F.F.F.F.F.F.F.F.F.F.F.",
"F.F.F.F.F.F.F.F.F.D.F.F.F.F.F.F.F.F.F.F.F.F.F.F.F.F.F.F.F.F.F.oXF.F.D.F.F.F.F.F.F.F.F.F.D.D.D.oXF.F.F.F.F.F.F.F.F.F.F.F.F.F.F.F.",
"F.F.F.F.F.F.F.F.F.F.F.F.F.F.F.F.F.F.F.F.F.F.F.F.F.F.F.F.F.F.F.F.D.F.F.D.F.F.F.F.Z.F.F.F.F.F.D.F.F.F.F.F.F.F.F.F.F.F.F.F.F.F.F.F.",
"F.F.F.F.F.F.F.F.F.F.F.F.F.F.F.F.F.F.F.F.F.F.F.F.F.F.F.F.F.F.F.D.F.D.F.Z.F.F.].Z.].Z.F.F.F.D.D.D.F.F.F.F.F.F.F.F.F.F.F.F.F.F.F.F."
};