/* XPM */
static char *result[] = {
/* columns rows colors chars-per-pixel */
"64 64 180 2 ",
"   c #7DB7E5",
".  c #7DB5ED",
"X  c #77B9EC",
"o  c #7DB9ED",
"O  c #6EBCFF",
"+  c #75B7F6",
"@  c #7BB6F4",
"#  c #75BBF6",
"$  c #7BB9F5",
"%  c #74B7FD",
"&  c #7AB7FC",
"*  c #74BAFE",
"=  c #79B9FC",
"-  c #7CC0FF",
";  c #AFBABE",
":  c #BDBDB3",
">  c #B0B8BB",
",  c #BDBDBC",
"<  c #FDBF96",
"1  c #C3BAB5",
"2  c #C2BDBF",
"3  c #CCBFBB",
"4  c #D1BFB5",
"5  c #D0BEBC",
"6  c #F4C58E",
"7  c #FDC38D",
"8  c #FAC98E",
"9  c #EEC99D",
"0  c #F5C595",
"q  c #FBC494",
"w  c #F5C995",
"e  c #FAC893",
"r  c #F4C69C",
"t  c #FAC49A",
"y  c #F2C99B",
"u  c #F8C99D",
"i  c #CEC2AA",
"p  c #DFC6A7",
"a  c #D2C4AA",
"s  c #DCC3AD",
"d  c #DDC9AE",
"f  c #CBC3B4",
"g  c #C4C2BD",
"h  c #CBC1BB",
"j  c #CECCBF",
"k  c #D3C3B5",
"l  c #DCC5B3",
"z  c #DDCAB5",
"x  c #D3C5BB",
"c  c #DCC6BA",
"v  c #D5CBBC",
"b  c #DCCABB",
"n  c #E3C7A7",
"m  c #ECC6A4",
"M  c #E5C9A4",
"N  c #ECC9A4",
"B  c #E3C6AB",
"V  c #EBC6A9",
"C  c #E4CAAD",
"Z  c #EBC9AB",
"A  c #F3C6A3",
"S  c #F9C4A2",
"D  c #F2C9A2",
"F  c #F4C6A9",
"G  c #F1C9AB",
"H  c #E3C6B3",
"J  c #EAC7B4",
"K  c #E2CAB3",
"L  c #E9C9B2",
"P  c #E1CABC",
"I  c #9EB3C4",
"U  c #96B6CD",
"Y  c #84B7DF",
"T  c #8BB4DB",
"R  c #85BBDF",
"E  c #8BB9DD",
"W  c #93B4D3",
"Q  c #9DB5D4",
"!  c #9BB9D1",
"~  c #95B6DD",
"^  c #9DB5D9",
"/  c #92BADC",
"(  c #9CBCDC",
")  c #A0AFC4",
"_  c #A4B5C7",
"`  c #ABB3C4",
"'  c #A2BDC6",
"]  c #ABBBC5",
"[  c #A4B6CF",
"{  c #AAB6CA",
"}  c #A6BCCE",
"|  c #ACBBCC",
" . c #B3BBC6",
".. c #BABCC3",
"X. c #B2BCCA",
"o. c #A4B6D2",
"O. c #A8B6D0",
"+. c #A2BBD3",
"@. c #A9BFD3",
"#. c #A2BADC",
"$. c #B4BFD3",
"%. c #85B5E5",
"&. c #89B4E3",
"*. c #84B9E4",
"=. c #8BB9E4",
"-. c #83B6EC",
";. c #8BB6E9",
":. c #83BAED",
">. c #8EB8E8",
",. c #92B7E3",
"<. c #92BCE4",
"1. c #9CBEE4",
"2. c #94BEE8",
"3. c #99BFEC",
"4. c #81B6F1",
"5. c #89B7F2",
"6. c #83BCF4",
"7. c #8ABEF3",
"8. c #81BDFC",
"9. c #A0BCE1",
"0. c #C7BCC2",
"q. c #9DC3DC",
"w. c #B0C2C4",
"e. c #BDC2C4",
"r. c #B3C2CD",
"t. c #BBC3CA",
"y. c #A2C1D6",
"u. c #ACC4D5",
"i. c #B2C3D2",
"p. c #B4C4DE",
"a. c #BCC7DB",
"s. c #BFD0DB",
"d. c #85C0F6",
"f. c #8BC1F5",
"g. c #84C2FC",
"h. c #8AC5FC",
"j. c #8BCAFF",
"k. c #92C6F5",
"l. c #94C7FC",
"z. c #94CBFD",
"x. c #9CCEFE",
"c. c #96D3FF",
"v. c #9DD3FF",
"b. c #9DD9FF",
"n. c #B6CFE5",
"m. c #BCCEE4",
"M. c #B9CEE9",
"N. c #B7D1E7",
"B. c #BCD2E5",
"V. c #B4D3ED",
"C. c #BAD2EB",
"Z. c #ADD4F5",
"A. c #A5D5FE",
"S. c #ABD5FD",
"D. c #A5D9FF",
"F. c #ABD9FE",
"G. c #B3D4F3",
"H. c #B9D1F1",
"J. c #B1D5FB",
"K. c #C2C2C4",
"L. c #CBC4C1",
"P. c #CDCBC3",
"I. c #C2C4CB",
"U. c #CEC5CA",
"Y. c #CDCDCE",
"T. c #D2C7C1",
"R. c #D4CBC3",
"E. c #DACBC2",
"W. c #D2CCCA",
"Q. c #C1C3D0",
"!. c #C6CED5",
"~. c #CBCDD3",
"^. c #C4CFDB",
"/. c #C9CDD9",
"(. c #D0CDD1",
"). c #C5D0D4",
"_. c #CBD0D5",
"`. c #C2D0DC",
"'. c #C2CEE4",
"]. c #C3D2E1",
/* pixels */
"* O O * O O O O * * # * % = * = * % * = * = O # # # * # X - O O O O * O * * * # = = % # O O O O O # * O % = # = = = % * * * = # ",
"* * * O * * * * * * # * * * # = % % % * % * O O O O * # # - - O O # * O * O * % = = * = * O - * O # * * O * * = = % * * * * = # ",
"* * * * % % = = * # * * * * * O # % * % = O O O O O O * = # * * # % # * * % * * % * * * * O * * * * O O O O O O % * * * * * * * ",
"* O O - = & & & # * O O O O * * O * # O = - - O O O * % = * % * O + + + % O O * * * * * O * * * % * * O O O O - * * * * % * % * ",
"# % O O O # $ $ % * O O * * * O - - O # % * * * * % = * % % % % O O * # * # O - * * * * * * * * % * * * O O O O * * * * = * * * ",
"= # O O * # = = * O O O * * * * O O O O % * * * % % & $ $ 6.;.;.-.%.;.&.*.-.+ + # O * * * * % * = * = * * O O O * * * % * % * * ",
"% * - - O * % % * O * * = = # # % * * * * - = * % % = -./ u.e.f f 3 3 h K.i.>.$ # * * % = = % * = # # = = # % * * * * % * O * * ",
"% * O O O O * * O O * % = = % * # # * O O # -.;.4.5.;.U w.j C 9 r t A F L j | W R -.*.%.&.*.# * # # # $ = = = % * * * * * O - * ",
"O O O - O O O * * * % & & = * - # # * % @ >.+.| } ] ; : a p r t q q q q t N k , ] ;  . .X.W $ O O O O * = = = % * * O O O O O * ",
"% O O - O * * * * * = = & % O O $ @ = -.,.u.P.z v v s n M N F S A S S S y D B l v v z z x X.=.$ O O O O * % = = * * O O O O % # ",
"* * * # = * % % = # = = * * O O -.&.Q ) > f M 9 A r r A V K H P v b E.E.b b b E.b K F A V f @.=.# O O O * * * * * - O - O * # & ",
"* % * # # # % & $ $ % % * O # X 1.a.U.x z N w 8 0 0 t A z R.(.~.!.`.`.`.).)._.Y.b H m t A B L.u.*.# O O - O * * # # O O O * & & ",
"% % = # O O O # $ & % % O + %.U e.c V t r y 6 0 y m m K ).].C.H.C.G.Z.G.G.V.C.s.!.E.K Z m Z C v { &.. * * O * = # # O - O O % & ",
"% % = # O O * # $ # * O * 4.! , s N t 7 q q 0 D K R.v ~.B.Z.F.S.F.S.Z.S.F.F.Z.V.m.`.Y.E.z C N N h r.~ . % % * = # # O O O O % = ",
"% % = # O O O * & # O O = 2.K.C y 0 q < q t t J /.M.C.G.Z.F.S.S.S.S.S.Z.A.S.S.S.G.H.G.N.`.R.N y Z k i.&.@ % = & $ # O O O - % = ",
"& O O - O - * % = % O O % ~ f y e 7 < q t m J W.H.S.S.S.D.D.Z.F.A.S.S.S.F.S.A.S.F.S.A.Z.G.`.b Z y V h ] ~ >.>.-.. $ O O O * * = ",
"% * O O O O * % = = % = @ ( k y q q q q V z /.V.A.A.S.D.A.A.F.S.S.A.S.S.S.S.S.F.S.J.Z.Z.Z.V.m.~.C D C d k T.Q.O.-.# * * - O O % ",
"% * O O O O % # & = = 4.%._ s w q t t F b _.V.S.D.A.A.F.S.A.S.A.A.D.D.F.A.A.S.F.F.F.A.F.Z.S.S.n.E.C m y r m z X.;.% * * O O % & ",
"* * * # - * * * * = $ >.r.f m t t A V b !.N.Z.S.S.Z.Z.S.x.f.6.g.d.d.d.7.6.7.f.7.f.A.A.A.A.S.S.G.'.W.B y q A c { -.& & % * * * * ",
"= * = - # % * * * = . 1.P.C q q A Z b ~.N.Z.F.S.S.J.S.F.x.@ + # # = = = = = $ $ 6.b.D.D.A.D.A.J.G.'.c 9 q t H ..T 4.& % * * % * ",
"= = # = * % = % & = 4.9.v N 0 t C E.).B.Z.S.S.S.S.F.A.x.j.= * * * O O * * * = $ $ b.D.D.A.F.S.S.S.'.R.Z t t V 4 ] E X O # # # * ",
"= = = * * * = % % 6.&.| z D q u z Y.B.Z.F.D.S.S.F.A.7.4.= * * O O - O * * * * = $ b.b.D.A.S.S.S.S.H.W.V t q t B T.u.X O O O = * ",
"% = = % O O O O # *.I 1 V t 7 0 R.].G.S.D.S.S.S.A.v.g.* * * % * * * * * % * % # - c.v.D.S.S.S.J.S.C.R.V < < q w K e.*.- # - # * ",
"* * % % O O - # o q.K.C S t 7 N Y.G.S.A.D.A.S.A.6.g.* * = * * = * % % * * * * # $ d.f.v.A.S.J.S.S.M.R.V t q q q Z g   O # = * O ",
"O - O O * - # o E r.K D < t y d _.G.F.A.F.A.A.v.$ * * * * * * * * = * * = * * = = X 6.z.A.F.S.F.S.H.Y.C A t e t D h %.% % = * * ",
"O - O + % $ -.( t.x F t q r d R.`.G.F.A.D.x.l.j.# % * * = % * * * = % * % * * * # + # j.z.z.l.l.A.G.`.R.L A 0 0 A 5 ;.% % % * * ",
"% * * % % -.o.I.B A t q q V ~.M.C.V.G.S.A.f.6.# * * % * = = * * * % * * * * * * * # # $ = $ @ 6.A.G.N.s.Y.K r e t 5 ;.% * * % = ",
"O O * * = %.[ v A 7 q q t V '.S.J.Z.S.S.A.d.$ * * * * = * = * * * * * * * O * * * * O O # % # @ x.S.Z.N.`.b 9 e w k &.O O * # = ",
"O O # $ # *.o.R.r 7 7 7 e n B.F.S.A.F.S.A.h.# * - O * * * * * * * * * * * O * O * * - O * * % = v.Z.D.V.].R.m w y f E * * - O O ",
"O O # # = . o.T.r 7 q w N v C.F.A.A.F.A.v.g.* O O O * * * * * * * * O * O * * * O O O O * * * # v.Z.D.Z.`.E.D w 9 f T % * - % * ",
"% + # % * o ! T.A 7 0 V E.^.G.S.A.D.A.l.h.* * O * * # * * * * * * * * * * * * * * # = * * - = = x.S.S.V./.b r w 9 g &.% * O O O ",
"* * % % O $ +.T.A q r K /.G.F.A.D.A.x.:.$ # * - * # % * O O O * * * * * * * * # # # # * O O # = x.S.F.V.~.P r w m g &.* * * O O ",
"O - * O = 4.O.U.A w A z B.Z.A.A.D.A.v.f.8.= % * * % * * O O O O * * * - O O O O * * O O O * # $ x.F.S.M._.P A S A g -.- O # % # ",
"O * O O = %.O.E.r q N z `.Z.S.S.A.A.S.v.c.h.= = - * * * O O O O * % * * O O * * * * O O O - = o x.F.S.V._.b r t F h *.O # * % % ",
"# * O O = &.` P r q D K Y.].Z.F.S.Z.F.D.D.g.# * * O * * * * - - * % * * % % * # * * * O O * = . A.S.A.G.`.z 0 7 y f Y * * % % * ",
"& # * O * &.` v D t y V b _.M.J.S.Z.S.A.A.d.% * * % * = = * * * * * * * = $ = % * * * * % - c.j.A.A.S.S.).z w e N g T # * * O O ",
"& % * O % :.} P.C r q w G E.].G.S.Z.S.S.A.f.@ # * - * + * # * * * % = = $ $ # % = * * # $ g.D.D.A.A.A.V.).v N 9 K I.E $ * O O O ",
"= % * O * o / w.f V t t F P ].J.J.F.S.S.S.k.f.8.= g.+ + = * * * * * # = = $ * * * * $ g.f.f.A.A.A.A.A.V.).v C s g @.%.= * O - O ",
"= = % * O * X =.{ x A q m b M.S.S.A.S.S.F.S.A.D.b.b.g.= - * % * O * * * % * * * * = 6.x.S.A.J.S.S.S.S.V.P.E.b 0.^ 5.@ & % * O O ",
"= % % % O * O X W 0.F t y L /.C.G.S.S.A.F.A.S.S.A.A.g.# * * = % * O * * * * O O * = . x.F.S.S.S.S.S.G.^.j b v  .%.% % = & * * O ",
"= # % % = O O # T Q.V < < 7 V R.'.G.J.S.S.F.S.Z.S.S.v.c.j.% % = * O * % % * * O * v.D.A.S.J.S.S.J.H./.v n C b | -.* * % * * * = ",
"= # # * = # * # &.p.P A 7 7 0 B W.'.V.Z.S.A.F.Z.G.S.A.b.j.# . # * * * * * # - = g.v.A.A.S.F.S.S.H.^.b G w r b | o O * * O * = $ ",
"# O O O * * = # 4.3.$.x 9 e e y H R.s.V.S.A.S.S.G.S.S.A.x.h.g.6.# = = $ g.g.d.7.l.A.S.S.J.S.F.G./.E.B A q t z { $ O O O O * % * ",
"O - O O O * = $ = 4.,.X.l D q 8 r H W.s.V.S.S.S.S.S.S.S.A.A.v.4.$ $ $ 6.v.D.A.A.A.S.S.Z.S.Z.S.N.R.C A S < F E.O.o O * * * * * = ",
"O O O O O - * # $ @ . 1.t.s y 7 w D z R.s.V.Z.F.F.F.J.Z.S.F.D.d.o $ :.:.S.D.S.A.S.S.S.Z.G.N.B.Y.C w w u F P 0.( -.# # * - O O # ",
"O O O O O * # $ # * % :.^ ..B u e t N K Y.`.V.Z.S.S.S.J.Z.A.D.c.v.v.v.x.F.S.S.Z.S.S.S.G.C.!.W.z 9 6 0 G c ..^ %.o # # O O O # # ",
"% % % # * O * * # * * % . ^ K.Z t e t m K W.'.G.S.S.Z.S.F.Z.D.D.D.A.D.D.F.S.S.S.A.A.A.G.`.R.J m t q 9 c I.^ ;.= # # # # O O O # ",
"= = # # * * * O # * * * % 4.#., B 0 t w A J W.`.G.F.S.Z.F.S.D.D.D.D.A.S.S.F.S.S.A.D.Z.B.W.H F t 0 D l 0.( -.= * = = # * O * % % ",
"% % * * * * * * * * * * * = :.W g p y q < t A E.N.S.S.S.S.S.A.D.A.A.S.S.F.F.S.F.A.J.M.~.J F A y F B , ! X O O O * # * * O O * = ",
"* * * * * * * * * * * * * * * o y.e.d A t q q V Y.m.B.V.V.Z.Z.D.A.S.S.Z.S.J.V.C.C.].(.b m < l v j , +.*.# - O O % # * * * * * = ",
"* * * * * * * * * * % * * * * # o E w.c V r t t F C K R./.M.Z.S.F.S.S.S.S.C.(.b L Z N N N i I E / =.$ + * O % = = = % * * * % * ",
"* = * * * = * * * * * * * * % % * . <.r.T.l H F t q q m c ~.'.m.'.M.B.N.B.~.P V A 9 p l j w.R + + % % * * * = & = & % * O * * = ",
"% * * * = * * % * * * * * * * * = . ;.2.q.' u.K.m < e q V J P E.l z b b b K V V c 2 } #.9.,.8.* * O * * * = # % * % O O O * * # ",
"* * * * * * * * * = * % % * * = = $ @ $     R ! R.B N m F A S F 0 y y N A m V K ..Q &.-.@ & & % O O % = = = = % * O O O O * * # ",
"* * * * * * * * * * * * * * * * = * * * # @ o *.u.t.t.3 4 F S 0 e e y y y N k e.q.%.-.= * * * O * # % @ = = % * O O O O # O - O ",
"* * % * % * * * * * * * * * % * * O - * % % # X *.T T Q 1 H F A w r N M N l t.U -.# $ $ + O O O % = $ = $ = * * * O * # # # O O ",
"* % * * * * * * * % * * * * * * * * O O * % % = # * % :.y.I.v k c c E.T.R.I.1.-.O O # o # - O - * * % # % % * O * * = $ = = * O ",
"* * * * * * * % * * % * * * * = # # O O * % = = O O O * *.( } ] ` [ [ O.O.^ -.* O O # # # O * O O * % * % * * O * * $ = $ % * O ",
"* * * * * % * * * * * * * * * % = * * O O * % = % * * # $ o   %.%.-.-.4.-.@ = * O * & = * = % * O O O O = * O O O * * $ % % O O ",
"* * = * * * * * * * * = * * * * # * * O O * = = = % # = * O O = * * % % % * * * * % = = # % = % O - - # # = O O O O * * * * * O ",
"* = * * * * * * * = * * * * * = * * * * * * = % % * * - * O * * O O # # # = * * O O O O * * % % O O # $ # # O - O O O - * - O O ",
"* * * % * * = * * * * * * * * * * * = # # * % * * * * O O O * * * * = = # = * * O O O * - * * * O * # # = * O O O - O * * * O O ",
"* * * * * % * * * * % * * * % * O * * * * * # * * O O O * * = % * * * # % # O * * % # # O O * * * % * * % * * * O O % = * * * * ",
"% * * * * * * * * % * * * * * * * * * * * O O # # * * O * * % % # % * % = % O * % = & = * * * * = % % % % * % * # O # = % * * * "
};