/* XPM */
static char *result[] = {
/* columns rows colors chars-per-pixel */
"64 64 225 2 ",
"   c #1C255E",
".  c #032C6C",
"X  c #0C2868",
"o  c #0C2A6B",
"O  c #17286B",
"+  c #132A6D",
"@  c #06326F",
"#  c #0B2E75",
"$  c #182D73",
"%  c #033372",
"&  c #0B3375",
"*  c #003A76",
"=  c #083778",
"-  c #013C7B",
";  c #183876",
":  c #252B68",
">  c #2D2E68",
",  c #263677",
"<  c #353778",
"1  c #433C7F",
"2  c #27417E",
"3  c #3B457B",
"4  c #414079",
"5  c #193B80",
"6  c #2F3A82",
"7  c #0B4A89",
"8  c #184888",
"9  c #14528C",
"0  c #044D91",
"q  c #0A5997",
"w  c #145493",
"e  c #175899",
"r  c #264986",
"t  c #2D4C8C",
"y  c #3C4484",
"u  c #374789",
"i  c #344B8C",
"p  c #225189",
"a  c #395289",
"s  c #274C92",
"d  c #334D93",
"f  c #3C4E92",
"g  c #295998",
"h  c #385797",
"j  c #39659D",
"k  c #285CA1",
"l  c #3D5AA1",
"z  c #1669A8",
"x  c #2C66A7",
"c  c #2E6BAA",
"v  c #326CAB",
"b  c #3968A8",
"n  c #3675AC",
"m  c #2F6EB3",
"M  c #2976B6",
"N  c #2D7CB9",
"B  c #3478B7",
"V  c #434484",
"C  c #484787",
"Z  c #464D8A",
"A  c #4C4D8C",
"S  c #514B8A",
"D  c #47538C",
"F  c #4C528E",
"G  c #52538E",
"H  c #474D93",
"J  c #534F92",
"K  c #445394",
"L  c #4D5293",
"P  c #435799",
"I  c #4B5A9A",
"U  c #535494",
"Y  c #5A5494",
"T  c #545A95",
"R  c #5B5B96",
"E  c #555B9A",
"W  c #5B5C9C",
"Q  c #615C9A",
"!  c #47629C",
"~  c #54619B",
"^  c #5C679B",
"/  c #5D629E",
"(  c #62649E",
")  c #646A9E",
"_  c #4C5CA1",
"`  c #5759A1",
"'  c #655EA2",
"]  c #4965A7",
"[  c #5D63A2",
"{  c #5768A6",
"}  c #4673AD",
"|  c #476DB4",
" . c #5C6AB2",
".. c #4B77BA",
"X. c #5873B8",
"o. c #6364A4",
"O. c #6B66A5",
"+. c #646AA4",
"@. c #6A6BA5",
"#. c #6667A9",
"$. c #6A67AA",
"%. c #656BAA",
"&. c #6B6CAB",
"*. c #716AA6",
"=. c #7362A8",
"-. c #726CAC",
";. c #6871A6",
":. c #6472AC",
">. c #6C72AC",
",. c #7373AD",
"<. c #686DB4",
"1. c #746EB2",
"2. c #6573B2",
"3. c #6C72B1",
"4. c #6B78B7",
"5. c #7374B3",
"6. c #7975B7",
"7. c #7479B4",
"8. c #7A7BB5",
"9. c #757CBB",
"0. c #7B7DBB",
"q. c #307DC0",
"w. c #507AC2",
"e. c #707CC3",
"r. c #847BBE",
"t. c #867DC1",
"y. c #2B81BC",
"u. c #3782BB",
"i. c #4186BF",
"p. c #7481BE",
"a. c #7C82BD",
"s. c #3986C4",
"d. c #338FCC",
"f. c #3AADEA",
"g. c #2FBAFA",
"h. c #34B5F6",
"j. c #3DB5F4",
"k. c #34BCF6",
"l. c #3BBAF5",
"z. c #35B6FB",
"x. c #3BB6FC",
"c. c #36BDFD",
"v. c #3BBCFE",
"b. c #4889C4",
"n. c #5487C7",
"m. c #5096CD",
"M. c #4E93D0",
"N. c #499CD9",
"B. c #5999D7",
"V. c #7C83C3",
"C. c #7989C6",
"Z. c #6E92CE",
"A. c #4BA7DF",
"S. c #55A2DE",
"D. c #64A0DC",
"F. c #4AA4E4",
"G. c #47A8E4",
"H. c #43ADE9",
"J. c #4CADEB",
"K. c #55A5E3",
"L. c #5CA4E4",
"P. c #57A9E5",
"I. c #53ADEC",
"U. c #5CACEB",
"Y. c #43B6EB",
"T. c #44B3ED",
"R. c #4CB4EE",
"E. c #54B3EE",
"W. c #5BB5EC",
"Q. c #49AEF1",
"!. c #54AEF1",
"~. c #43B4F4",
"^. c #4CB5F3",
"/. c #44BAF5",
"(. c #4CBAF6",
"). c #44B6FC",
"_. c #4DB5FA",
"`. c #42BBFD",
"'. c #4BBBFC",
"]. c #54B3F2",
"[. c #58B7F4",
"{. c #52BCFB",
"}. c #66A5E7",
"|. c #62ACEC",
" X c #6CAAE9",
".X c #65B5F1",
"XX c #35C0F7",
"oX c #34C1FD",
"OX c #3CC1FE",
"+X c #42C2FF",
"@X c #4BC2FE",
"#X c #42C8FF",
"$X c #50C0FF",
"%X c #8581BA",
"&X c #8282BC",
"*X c #8484C3",
"=X c #8985C3",
"-X c #8489C4",
";X c #8B8BC5",
":X c #8886CA",
">X c #868BCA",
",X c #8C8DCC",
"<X c #938BCC",
"1X c #8C91CD",
"2X c #9292CD",
"3X c #878FD0",
"4X c #8D95D3",
"5X c #8C99D6",
"6X c #9494D3",
"7X c #959AD6",
"8X c #989BD9",
"9X c #A19ADA",
"0X c #83A4DA",
"qX c #95A5DC",
"wX c #93A9E1",
"eX c #A4A5E3",
"rX c #A9AAE8",
"tX c #B2AEEE",
"yX c #A9B5EE",
"uX c #B0B2ED",
"iX c #ACB5F2",
"pX c #B4B4F2",
"aX c #B7B9F7",
"sX c #AEC7FB",
"dX c #CFCEFF",
/* pixels */
"oXXXXXk.v.v.k.x.v.+Xc.v.k.c.OXv.`.x.`.v.z.v.x.`.`.z.`.+Xx.x.v.`.`.k.v.`.v.v.z.v.v.`.x.`.`.`.h.`.v.v.v.v.v.oXoXoXc.v.).).'.`.c.oX",
"XXXXk.+Xv.`.v.OXv.z.`.v.v.`.x./././.'.'.~.).).~.).'./.).).'.)./.'./.`.j.v.+X+Xv.z.`.v.x.v.`.v.`.v.`.`.v.v.oXoXoXv.v.`.`.x.v.c.oX",
"v.OXv.`.x.x.v.v.OXz.v.x.).T.[.[.[.].].].!.E.[.].].[.!.I.[.].!.I.[.I.E.R.@X/.j.x.v.+Xv.`.v.`.`.h.x.v.v.v.v.c.c.c.oXc.v.`.v.`.c.v.",
"x.v.`.`.v.`.`.v.`.`._.^.I.z q 7 e x v c c e 9 9 w w x c c c x c 7 9 0 q y.R.(.@X/./.l.v.x.v.`.+Xv.v.v.v.v.v.c.c.c.v.v.v.v.v.v.v.",
"'.`.v.z.v.v.l./.Q.J.U.}. Xh & 6 u f P P P , + , O $ P P u P f u , , + 5 n }.S.N.G.Y.+X/.v.k.c.c.v.c.v.c.v.v.v.v.v.c.c.v.v.v.v.v.",
").x.v.z.@X`.H.$XK.* 8 i L [ :. .+.@.5.o.&.U U @.J A &.T A #.( A <.' L { _ h @ * * M E.R./.v.OXoXc.OXoXv.v.v.`.`.v.v.v.oXv.v.v.`.",
"z.v.+X'.~.N.w g j i { >.-X7.+.C.a.;.;X7.,.+.( @.@.@.@.) ) >.8.a.$.6.V.5.&.%.o.{ u h k q y.E.~.~.v.v.v.OXv.`.).).).`.v.c.c.c.v.v.",
"c.c.v./.F.m.= t a D ) ,.&X;.,.a.&X;.;X8.@.+.@.+.@.;.( ,.8.) ,.;X&.4.;X8.1.*.-.O.J L P ; v B.N.J.^./.l.l.`.v.).).).v.v.oXc.v.v.v.",
"c.oXv.Y.q * g t D ;.@.) *.*.;.@.0.;X&.@.@.G V @.@.@.@.a.;X@.,.&.6X1X+.-X&X@.@.@.@.&.o.4.] u o v |.J.]./.`.v.v.'.).`.v.c.c.c.v.v.",
"OXoXOX+XH.L.D.s X , a R -.*.@.F ( 3.@.W G ( O.,.@.-.A W 5.A Y 5.&.<.7.>.,.;.) @.+.8.6Xo.0.0.`  .b q s.^./.j.`.v.x.v.v.v.v.v.`.v.",
"h.h.OXk.+X^.!.m e g r u ' =.( Q Y #.@.W U ` #.&.o.o.A W o.A W W &.&.W &.+.@.@.@.,.8.%X,.0.p.4.{ _ # c S.R.).l.oXv.v.c.v.v.v.`.`.",
"@Xv.oXoXk.`._._.(.E.e & y J C ' W L o.<.o.U F %.U Z &.U A %.[ H &.&.A #.+.( ,.;.;X&X,.2XC.p.3XV.#.d 8 * z ^.+Xv.c.oXc.v.x.`.).`.",
"/.k.k.v.x.'.).).`.(.E.B.; y A A W W 3.o.L W o.L [ W U T ` T U o.A A #.A / %.+.;.,.a.*X;.0.>X4X8XeX<._ p s.].f.+XoXc.oXc.`.`.).`.",
"x.v.OXOX'.).x.).v.v.Y.P.# u A C W >.&.L Z o.[ Z [ <.V [ &.V T %.A L %.A T :.+.%.>.p.>X3.0.>X6X8XtX1.E d w.U.{.j.v.oXv.v.v.v.v.v.",
"`.c.g.g.+Xx.`.+XoXk.Y.S.o 6 L Q o.+.F R #.T C @.F Y %.U A &.R F o.O.J ( / 2.%.3.;X0.6.,X&X0.6X6X9X&Xe.%.l e I.{.v.v.v.c.v.v.v.c.",
"x.+XoXoXoXv.v.v.l./.S.B.; V A O.O.@.C W / U A +.U A Q ( G ) R G &.O.A o.%.@.&.&.>Xa.o.*X&X6.,X,X;X2X=X&.P 5 }.J.).c.oXv.c.c.c.v.",
"v.x.OXv.c.OXOXk.~.K.8 , Z +.#.$.W J #./ Z [ %.Z ' Q S Q O.S R @.@.%.o.#.3.#.3.2.:.T y 3 U 5.*X*Xr.r.%X*.W f # x ).k.c.oXv.v.v.v.",
"`.x.v.c.c.c.k.`.f.5 r A @.@.&.L Y o.V U 5.Z F %.A Y O.&.@.) @.>.>.[ L [ #.&.:X:Xo.T     < %.6.6.%X,.*.*./ y X c R.XX#Xc.z.v.`.v.",
"v.v.v.v.v.v.v.'.K.# ! U %X,.&.~ E ^ [ T W T E %.[ ` -X7.@.4.&.+.+.+.Y W Y Y t.t.a.8.-.W o.$.U $.=Xa.8.@.2.Z.o c E./.k.z.@Xv.x.v.",
"v.c.v.v.`.v.'.Q. X+ { 7.;X,.%.%.E y %.E V #.1.$.3.&.:Xe.2.o.%.>.;.>.O.J C C ' -.6X9XpX,Xa.o.C T +.-Xa.>.V.yXX b .Xf.@Xv.z.v.v.`.",
"oXv.OXv.x.'._.M s 6 <.O.@.,.&.I / [ D / #.t.t.1.:X:X0.*X:X<.2.@.o.*.,.@.*X8X4X:X,X6X6XtXeX-XV.C.C.~ %.>X3X,X#.h u.R./.l.k.v.OXz.",
"oXc.v.v.~.'._.0 5 H $.5.@.) %.Z T +.Z W &.<X9X-.>X6X&.6.:X#.5.&.-.*.-.o.>XiX7X5X8X6X9XuXeX1X4X4XC.~ #.3X*X:X1.U x S.R.@X+Xk.v.v.",
"oXc.x.l.'._.!.w $ 1.1X%X*.A Z #.W A @.&X<XrXtX6XrXpX4X0.&.1 Q -.$.3.1X7.e.7X3X4XpXaXdX7X;X2X6X;X6X6Xt.#.&.V <X1.2 @ m.R.~.oXk.v.",
"c.oXv.v.`.Q.!.x K O.5.;.C @.o.L W #.<X<XtXpXtXrX8X1X>.( S > 4 *.&.%.7X` y < L Y W ( ) *.,.&X;X6X8XrXtXeX6X*XY r.7.t s z R.@X`.v.",
"oXk.+Xx.`.R.U.b L &.>.+.C ( @.A T >.6XeXiXiXyXrX>X=X) Y 3 > 3 ;.&.@.1XW < : 1 V V y F E +.5.t.t.:XeXrXrXeX2XY &.>XK , 5 U.Q.).v.",
"c.v.x.v./.(..Xb L 1X:.+.@.G V #.&.,.aXpXaX5XC.2.A A S < : 3 ^ ) +.@.,.F < $ + $ + o o o + O O $ # f L 3.>XyXrX6XF +.L d - z ^.j.",
"x.v.v.x.v.R.n | ^ a.>.;.W Y W W O.*XpXtX8X3X9.` y , > : : 4 T @.a.a.D 2 j n m N u.y.N N N N N N B b...d ! p.qX3Xa.W J u % z (.l.",
"v.v.OXv.v.H.% { :.;.^ ~ L ' &.F ,.,XpX4X3X<._ h p 8 2 2 O D R 5.%X-Xa p n W.R.T.Y.Y.R.(.^.^._.^.R.J.M.7 g ] { C.7XK H d w z ~.`.",
"v.OXz.OXv.A.# E ;.) F D @.U y / 8.8X1Xp.2.6 $ % A.W.W.u.;  .e.:X$.%.. D.E.f.XX#Xv.k.`.`.v.l.x.z.j.'.{.[.[.K.* 5 _ <.h v [.^.l.`.",
"`.v.z.v.v.H.$ 1.a.^ ~ T W W  .V.1X8Xp.2.] | B M Y././.d.e ..X.e.] b m K.^.+Xk.OXc.v.v.`.v.OXOXOX+X`.f.`.l.(.q.B n.B.M.d.T.`.x.v.",
"x.v.OXk.OXJ.O r.%X) ) ^ U #.qXC.sXwX0X! b.U.R.'.~.).~.'.R.J.s.N.].f.'.x.`.v.k.v.c.c.v.v.x.v.v.c.c.v.v.`.v.x.(.R.(.f.(.Y.OXOXh.'.",
"x.OXOXc.l.I.y =.;.,.D Z &.H 7.8XqXwXi.i.[.T.`.v.`.`.`.~.l.'.~.(.x.OXk.v.z.v.v.v.v.c.OXv.x.OXv.c.c.v.v.x.z.c.OXXXk.OXl.XXXXv.x.`.",
"`.z.v.OXl.F.f O.;.) T R E Y ' sX-XsX}.A.~.`.OXc.v.v.v.`.v.v.).`.v.v.v.v.v.v.v.v.v.v.v.v.v.v.v.v.c.v.v.v.v.oXv.v.v.v.v.oXv.v.v.v.",
"v.v.OXz.`.J.d %.+.;.+./ L o.-.<Xa.C..XR.`.v.v.v.v.v.v.v.v.z.v.v.v.v.v.v.v.v.v.v.v.v.v.v.v.v.v.v.v.v.v.v.v.v.v.v.v.v.v.v.v.v.v.v.",
"v.`.v.l.+XP.t 9.7.;.W R E 9.0.;X7.] .X~.v.z.c.c.v.k.v.v.v.c.v.v.v.v.v.v.v.v.v.v.v.v.v.v.v.v.v.v.v.v.v.v.v.v.v.v.v.v.v.v.v.v.v.v.",
"`.v.v.v.+XF.d :X&X;.G G o.-X,X1X:.} P./.`.v.OXOXOXv.v.v.c.v.v.v.v.v.v.v.v.v.v.v.v.v.v.v.v.v.v.v.v.v.v.v.v.v.v.v.v.v.v.v.v.v.v.v.",
"v.x.v.`.~.I.d *X1X;.) Q L a.4X>.! x E./.+Xv.c.z.v.v.`.v.v.c.v.v.v.v.v.v.v.v.v.v.v.v.v.v.v.OXv.v.v.v.v.v.v.v.v.v.v.v.v.v.v.v.v.v.",
"v.v.v.v.j.U.t 3.,.( Q R W -X7X:.g 9 [.l.v.z.z.z.v.k.v.`.v.v.v.v.v.v.v.v.v.v.v.v.v.v.v.v.v.v.v.v.v.v.v.v.v.v.v.v.v.v.v.v.v.v.v.v.",
"v.v.`.`./.I.8 3.%X*.R Q %.a.7.^ } N @Xv.z.oXv.v.v.v.`.v.v.c.v.v.v.v.v.v.v.v.v.v.v.c.v.v.v.v.v.v.v.v.v.v.v.v.v.v.v.v.v.v.v.v.v.v.",
"v.v.x.'.(.A.& a.&X*.O.*.@.>.>.a b.W./.v.v.OXz.v.v.v.v.`.v.v.v.v.v.v.v.v.v.v.v.v.v.v.v.v.v.v.v.v.v.v.v.v.v.v.v.v.v.v.v.v.v.v.v.v.",
"v.v.v.x.'.F.. 4.a.O.-.O.Y a.7.! b.(.l.v.v.v.v.v.v.v.v.`.v.v.v.v.v.v.v.v.v.v.v.v.v.v.v.v.v.v.v.v.v.v.v.v.v.v.v.v.v.v.v.v.v.v.v.v.",
"k.v.`.).'.J.. ] @.O.*.O.U 7.;Xh b.(.x.v.c.v.v.c.oXv.v.`.v.v.v.oXv.v.v.v.v.v.v.v.v.v.v.v.v.v.v.v.v.v.v.v.v.v.v.v.v.v.v.v.v.v.v.v.",
"c.OX`.x./.H.* r H &.*.$.#.2.>.; u.^.v.c.v.v.v.v.c.v.`.x.v.v.v.v.v.v.v.v.v.v.v.v.v.v.v.v.v.v.v.v.v.v.v.v.v.v.v.v.v.v.v.v.v.v.v.OX",
"v.v.v.).`.^.n h Z 1.&.o.o.&.o.; y./.OXv.`.v.v.c.c.v.v.`.v.v.x.k.v.v.v.v.v.v.v.v.v.v.v.v.v.v.v.v.v.v.v.v.v.v.v.v.v.v.v.v.v.v.v.v.",
"OXc.).v.`.(.|.j a $.#.o.A o.%.; y.~.`.v.x.`.v.v.oXk.v.v.`.v.v.OXc.v.v.v.v.v.v.v.v.v.v.v.v.v.v.v.v.v.v.c.v.v.v.v.v.v.v.v.v.c.v.v.",
"c.z.x.`.v.f.W.p u t.>.5.` #.>.; s.~.v.v.`.).v.v.oXk.v.`.v.v.k.l.v.v.v.v.v.v.v.v.c.v.v.v.v.v.v.v.v.v.v.v.v.v.v.v.v.v.v.v.v.v.v.v.",
"c.c.v.`.v.Y.W.9 ; *X&.#.&.` E t s.`.x.`.`.'.v.k.oXoXv.`.v.v.v.XXv.v.v.v.v.v.v.v.v.v.v.v.v.v.v.v.v.v.v.v.v.v.v.v.v.v.v.v.v.v.v.v.",
"v.OXv.v.x.@XY.w ; :.2.%.&.Y V i b.].x.x.'.).v.v.oXoXv.v.v.v.v.l.v.v.v.v.v.v.OXv.v.v.v.v.v.v.v.v.v.v.v.v.v.v.v.v.v.v.v.v.v.v.v.v.",
"v.v.v.c.v.v.j.F.M.h 5X4X{ { ( D s B Q.).'.x.v.OXk.oXv.v.v.v.v.v.v.v.v.v.v.c.v.OXv.v.v.v.v.v.c.v.v.v.v.v.v.v.v.v.v.v.v.v.v.v.v.v.",
"`.v.c.c.c.v.v.R.}.8 5XqX7.+.&.%.K p !._.`.v.v.h.oXoXv.c.c.v.v.v.v.v.v.v.v.v.v.v.v.v.v.v.v.v.v.v.v.v.OXv.v.c.v.v.v.v.v.v.v.v.v.v.",
"v.v.oXc.v.v.`.].B.; V.1X+.@.-.-X%.b .X{.x.v.`.OXv.c.c.v.OXc.v./.v.v.v.v.v.v.v.v.v.v.v.v.v.v.v.v.v.v.v.v.v.v.v.v.v.v.v.v.v.v.v.v.",
"OXv.oXv.x.v.`.].L..  .7.8X5.&.5.V.C.B d./.v.v.v.v.v.v.v.v.v.v.v.v.v.v.v.v.v.v.v.v.v.v.v.v.v.v.v.v.v.v.v.v.v.v.v.v.v.v.v.v.v.v.v.",
"oXv.v.v.v.).`.R.|.& E 0.uX8.-.-.7.C.g s.{.l.k.x.v.`.v.v.v.v.k.v.v.v.v.v.v.v.v.v.v.v.v.v.v.v.v.v.v.v.v.v.v.v.v.v.v.v.v.v.v.v.v.v.",
"c.c.v.`.).v.v.^.N.g :.$.@.-X,X5.+.>.X.B.[.l.l.+Xv.`.v.v.z.v.v.XXv.v.v.v.v.v.v.v.v.v.v.v.v.v.v.v.v.v.v.v.v.v.v.v.v.v.v.v.v.v.OXv.",
"v.v.v.`.v.v.v./.|.g 4.6.5.&.7.<.;.+.*Xn.u.Y.l.k.~.).v.v.v.c.v.v.v.v.v.v.v.v.v.v.v.v.v.v.v.v.v.v.v.v.v.v.v.v.v.v.c.v.v.v.v.v.v.v.",
"`.`.).v.v.v.k./.S.g C.:X%.K i { :.>.<X] - F./.v.v.v.v.v.v.v.oXv.v.v.v.v.v.v.v.v.v.v.v.v.v.v.v.v.v.v.v.v.v.v.v.v.v.v.v.v.v.v.v.v.",
"v.`.v.v.v.c.c./.W...<.<.u ; % s ! :.&.` g L./.v.v.v.v.v.v.v.v.XXv.v.v.v.v.v.v.v.v.v.v.v.v.v.v.v.v.v.v.v.v.v.v.v.v.v.v.v.v.v.v.v.",
"v.v.v.v.v.c.v.^.U..._ f 5 n.M.M.n r <.<.] }.^.OXv.c.v.v.v.v.XXoXoXv.v.v.v.v.v.v.v.v.v.v.v.v.v.v.v.v.v.v.v.v.v.v.v.v.v.v.v.v.v.v.",
"v.v.v.c.c.v.v.^.L...l d - L.[.R.M.- <.<.w.}.Q.v.c.oXOXv.v.v.oXv.v.v.v.v.v.v.v.v.v.v.v.v.v.v.v.v.v.v.v.v.v.v.v.v.v.v.v.v.v.v.v.v.",
"oXoXoXoXc.v.`.~.U.k # g .XT././.^.U.# d w.L._.z.v.c.v.`.v.k.v.oXv.v.v.v.v.v.v.v.v.v.v.v.v.OXv.v.v.v.v.v.v.v.v.v.v.v.v.v.v.v.v.v.",
"k.k.oXc.v.v.v./.!.0 m N J./.OXv.~.].m k m !./.z.c.v.v.v.v.v.v.v.v.v.v.v.v.v.v.v.v.v.v.v.v.v.v.v.v.v.v.v.v.v.v.v.v.v.v.v.v.v.v.v.",
"v.OXoXv.v.v.v.`.Q.- I.E.@Xv.k.c.+Xh.^.F.e G.'.+Xv.c.v.`.k.v.v.v.v.v.v.v.v.v.v.v.v.v.v.v.v.v.v.v.v.v.v.v.v.c.v.v.v.v.v.v.v.v.v.v.",
"/.v.v.v.v.c.OXl.j.f.f.^.oXg.z.OXoXOX).f.H.Q.v.z.v.v.).`.oXoXv.v.v.v.v.v.v.v.v.c.v.v.c.v.v.v.v.v.v.v.v.v.v.OXv.v.v.v.v.v.v.v.v.v.",
"v.v.v.v.v.v.c.oXl././.+Xk.oXOXz.g.c.v./.^./.`.z.v.v.).`.v.v.v.v.v.v.v.v.v.v.v.v.v.v.v.v.v.v.v.v.v.v.v.v.v.v.v.v.v.v.v.v.v.v.v.v."
};