/* XPM */
static char *result[] = {
/* columns rows colors chars-per-pixel */
"64 64 242 2 ",
"   c #352C49",
".  c #38314D",
"X  c #392E50",
"o  c #3C3353",
"O  c #353C57",
"+  c #3E335A",
"@  c #3C3C64",
"#  c #423658",
"$  c #653656",
"%  c #453962",
"&  c #433965",
"*  c #443C6C",
"=  c #523D65",
"-  c #443E71",
";  c #7B3E60",
":  c #394666",
">  c #3E536D",
",  c #3C516E",
"<  c #3B4C76",
"1  c #3B5979",
"2  c #68405F",
"3  c #464669",
"4  c #574369",
"5  c #53546E",
"6  c #5A5069",
"7  c #464576",
"8  c #47447C",
"9  c #564974",
"0  c #465777",
"q  c #56557B",
"w  c #6D4A70",
"e  c #674A79",
"r  c #43617D",
"t  c #954469",
"y  c #844C77",
"u  c #904970",
"i  c #B24B6E",
"p  c #A9587B",
"a  c #B55579",
"s  c #C54F71",
"d  c #C75676",
"f  c #CD5273",
"g  c #D15775",
"h  c #D45C73",
"j  c #C2677C",
"k  c #D66174",
"l  c #DA6676",
"z  c #DC6B75",
"x  c #DB737C",
"c  c #E06F78",
"v  c #E5777C",
"b  c #3A5882",
"n  c #3D6282",
"m  c #3A678A",
"M  c #3A6B93",
"N  c #3E7196",
"B  c #3D759C",
"V  c #3C79A7",
"C  c #3E76AD",
"Z  c #484782",
"A  c #474983",
"S  c #454B82",
"D  c #484884",
"F  c #4B4D8A",
"G  c #445184",
"H  c #455589",
"J  c #4C528C",
"K  c #445B8B",
"L  c #49598D",
"P  c #5A5B8A",
"I  c #4E5591",
"U  c #495C94",
"Y  c #505A96",
"T  c #5B5E91",
"R  c #525E9A",
"E  c #6C4E81",
"W  c #7A4C84",
"Q  c #655386",
"!  c #67588B",
"~  c #785689",
"^  c #685C91",
"/  c #775D97",
"(  c #426683",
")  c #476687",
"_  c #436B8B",
"`  c #456896",
"'  c #566E92",
"]  c #54629E",
"[  c #5A6798",
"{  c #447294",
"}  c #46779A",
"|  c #467A9D",
" . c #4B7B9A",
".. c #686599",
"X. c #786796",
"o. c #6D7292",
"O. c #5664A0",
"+. c #556DA0",
"@. c #5A6BA2",
"#. c #457BA3",
"$. c #4072AA",
"%. c #4474AE",
"&. c #5E73A6",
"*. c #5578A8",
"=. c #527CB3",
"-. c #617BA9",
";. c #677AA9",
":. c #6C78AB",
">. c #854E8B",
",. c #894F8D",
"<. c #865589",
"1. c #975C87",
"2. c #8D5292",
"3. c #8A5A9A",
"4. c #945295",
"5. c #995897",
"6. c #9C549A",
"7. c #A75C83",
"8. c #A2599A",
"9. c #836B96",
"0. c #936995",
"q. c #A96598",
"w. c #BA689C",
"e. c #A67497",
"r. c #B67191",
"t. c #A657A2",
"y. c #AD59A4",
"u. c #B25DA5",
"i. c #9376A4",
"p. c #B563A3",
"a. c #BA65A6",
"s. c #BB6AA5",
"d. c #AB73A9",
"f. c #DA7787",
"g. c #C27093",
"h. c #C77798",
"j. c #D47592",
"k. c #3A81AD",
"l. c #3C88BB",
"z. c #51889E",
"x. c #4683A5",
"c. c #4983A4",
"v. c #4A85AA",
"b. c #4589AB",
"n. c #498BAB",
"m. c #5586A9",
"M. c #4790AE",
"N. c #5392AB",
"B. c #488EB1",
"V. c #478AB8",
"C. c #5888B6",
"Z. c #4994B5",
"A. c #4894B7",
"S. c #499CBC",
"D. c #5398B6",
"F. c #6684AC",
"G. c #6B85AD",
"H. c #698AAF",
"J. c #758AAC",
"K. c #678AB8",
"L. c #659BB7",
"P. c #799AB9",
"I. c #4BA1BF",
"U. c #5AA6BC",
"Y. c #71A8BA",
"T. c #3B8BC4",
"R. c #3A94CA",
"E. c #3D96D2",
"W. c #3C9ED5",
"Q. c #3D9EDB",
"!. c #3CA2DC",
"~. c #3CA9E7",
"^. c #3BAFF0",
"/. c #3CB2F3",
"(. c #3AB7F9",
"). c #3ABCFF",
"_. c #4A8BC3",
"`. c #578BC5",
"'. c #4995CA",
"]. c #5896C7",
"[. c #4A9AD8",
"{. c #519ED8",
"}. c #6F97C7",
"|. c #6A99C6",
" X c #4DA2C0",
".X c #53A7C3",
"XX c #54ABC4",
"oX c #5AABC8",
"OX c #5AB2C8",
"+X c #5BB4CA",
"@X c #47A3DD",
"#X c #57A7DA",
"$X c #5FB3D1",
"%X c #6BA8C9",
"&X c #78AECA",
"*X c #69B5CC",
"=X c #62BCCD",
"-X c #67A9DB",
";X c #77A6D6",
":X c #64B6D7",
">X c #7BB9D7",
",X c #46A9E5",
"<X c #4CB4ED",
"1X c #58B6EA",
"2X c #48B8F6",
"3X c #42BDFE",
"4X c #53BBF3",
"5X c #5BBDF3",
"6X c #67BAEB",
"7X c #75B8E4",
"8X c #60BCF0",
"9X c #7BC4DB",
"0X c #46C0FF",
"qX c #4BC2FF",
"wX c #53C4FE",
"eX c #59C5F9",
"rX c #76C7E8",
"tX c #6FC8F1",
"yX c #69C7F8",
"uX c #63CAFF",
"iX c #75CCF7",
"pX c #B5849D",
"aX c #9290B4",
"sX c #A88EB1",
"dX c #9CA2B1",
"fX c #D68791",
"gX c #E78588",
"hX c #E58F95",
"jX c #C99AA7",
"kX c #D59AA1",
"lX c #D4A2AA",
"zX c #F0B1AD",
"xX c #899BC9",
"cX c #96B8C9",
"vX c #99ADD5",
"bX c #8FB3D1",
"nX c #AFB7CB",
"mX c #C1B7C5",
"MX c #82C6D6",
"NX c #94CFDA",
"BX c #8EC8EB",
"VX c #C7C9D1",
/* pixels */
").).).).).).).).).).).).).).).).).).).).).).).).).).).).).).).).).).).).).).).).).).).).).).).).).).).).).).).).).).).).).).).).",
").).).).).).).).).).).).).).).).).).).).).).3XwX4X4X4X4X4X4X4XqXqX).).).).).).).).).).).).).).).).).).).).).).).).).).).).).).).",
").).).).).).).).).).).).).).).).).).).).).).wXyXrXrX>XbXbX7X7XiXuX3X).).).).).).).).).).).).).).).).).).).).).).).).).).).).).).",
").).).).).).).).).).).).).).).).).).).).).wXyXrX|.K.K.K.K.K.}.>XrX6X5XwX0X).).).).).).).).).).).).).).).).).).).).).).).).).).).",
").).).).).).).).).).).).).).).).).).).).3XyX7X&XK.R R ] R R @.P.;X>X7XiXqX).).).).).).).).).).).).).).).).).).).).).).).).).).).",
").).).).).).).).).).).).).).).).).).).).<X'.%XbX-.F J F F I I &.;.C.|.rXwX(.).).).).).).).).).).).).).).).).).).).).).).).).).).",
").).).).).).).).).).).).).).).).).).).(.~.%.K.cX;.P 0 8 Z 8 8 I R O.K.>X4X).).).).).3X3XqX5XeX5X5X8X8XwX3X3X).).).).).).).).).).",
").).).).).).).).).).).).).).).).).).).(.Q.%.*.L.xXJ.q * * * * Z I ] K.>X4X).).).).).3XuXiXcXnXnXnXnXnXBXiXqX).).).).).).).).).).",
").).).).).).).).).).).).).).).).).).).qX#X` +.H.P.P.o.o.T o.o.;.;.G.H.K.,X).).).).).3XrXNXjXjXkXkXkXkXnXBXiXwX3X).).).).).).).).",
").).).).).).).).).).).).).).).).).).3XuX-XU [ H.H.J.cXcXcXcXcXcXcXcXJ.L E.).).).).).3XbXjXx x z z z z fXmXBXyX3X).).).).).).).).",
").).).).).).).).).).).).).).).).).).2X@XC.R @.H.H.H.P.Y.P.xXP.P.Y.P.-.K E.).).).).wXiXnXlXx k h h h h j.zXnX}.<X).).).).).).).).",
").).).).).).).).).).).).).).).).).)./.%.` ] &.H.H.H.H.H.H.H.H.H.H.F.[ K E.).).).).uXBXnXkXz h s s f g f.zXe.:.,X).).).).).).).).",
").).).).).).).).).).).).).).).).).).^.C U ] -.H.H.H.H.H.H.H.H.H.G.&.R H E.).).).).rXnXkXf.g a i t a gXhXf.7.X.#X).).).).).).).).",
").).).).).).).).).).).).).).).).).).^.$.L R @.m.F.H.H.H.H.H.H.H.-.O.U U E.).).).).;XdXfXx f i t p g.hXgXh p X.#X0X).).).).).).).",
").).).).).).).).).).(.(.).).).).).).^.$.L R ] [ F.H.H.H.H.H.F.&.O.] Y b E.).).).).}.0.kXhXh i t fXhXgXx l p 9.-XeX0X).).).).).).",
").).).).).0XqXeXeXeXeXeXwXqX).).).).^.$.L R ] [ -.H.H.H.H.H.F.@.] ] U U E.).).).).`.0.fXhXhXf.h.fXhXx z v j 7.aX-X3X).).).).).).",
").).).).).eXiXtXrXrXrXrXiXuX0X).).).^.$.L ] ] ] -.H.H.H.H.H.F.&.O.R R $.Q.).).).).].9.j gXzXzXzXgXc z v gXc f 0.-.2X).).).).).).",
").).(.0XeXiXiX=X+X+X*X+XrXtXyXqX).).^.$.L ] O.[ -.H.H.F.&.-.F.@.R L *.-X<X).).).).1X&Xi.r.gXhXgXgXv z v f.x f 1.:.^.).).).).).).",
").).).qXiXyX9XXXI.Z.Z.Z.+XrXtXeX).).^.$.L R O.O.-.H.H.-.O.-.H.@.Y G C.uXqX).).).).wXtXK.0.j z z v v z c v z d u :.<X).).).).).).",
").).).qXtX:X X XZ.x.c.c.S.$XrXeX).).^.$.L R ] O.-.H.H.-.O.&.F.@.R H V.qX).).).).).3XqXrXxX0.a c v v k k x k d p i.yXwX).).).).).",
").).(.qXrX+XS.l.n. .{ { x.D.9XeX).(.^.$.L ] O.O.-.H.H.-.O.&.&.@.R H l.).).).).).).).).eX-X9.7.h v v z z z k d p i.xX1X).).).).).",
").).(.eXrX9XI.b. . ._ 0 { N.*XyX).(.^.C L R ] O.-.H.H.-.O.O.O.O.Y H l.).).).).).).).).).#XX.7.g k v v v z z k f 7.9.].).).).).).",
").).).eXrX=XZ.x.' _ r r z.Y.U.oX).).^.C H I Y O.-.H.K.-.O.@.&.@.Y H l.).).).).).).).).).@XX.7.f k z v z k k z h a 3.`.3X).).).).",
").).).eX9X+XI.z. .r r r Y.&Xz.l.(.).^.C S D I O.-.H.H.-.O.&.-.@.Y H V.3X(.2X(.2X2X2X3X3X,X:.1.f k z z k f k z h a 1.C.).).).).).",
").).).!.N.%X9X&XY.Y.Y.Y.Y.U.| l.(.)./.$.G D I ] @.&.F.&.O.@.@.Y J S C.iXBXxXxXxXxXxX;X2X2X@X:.7.d h z k f h z g a ~ `.).).).).).",
").).).!.N L.9XMXMXMXMXNXOXZ.B l.2X3X^.$.G D I ] ] @.F.-.O.] ] F S 8 F.bXxXd.i.i.i.sXxX}.2X(.`.<.a f k h f h k h a ~ `.).).).).).",
").).).W.N n.XXU.U.XXU.U.I.Z.{ Z.iXwX^.$.D D I ] O.@.F.-.O.] ] J 8 * 9 ^ e.r.<.~ <.8.u.xX;X2X`.<.a f h f f f g f a ~ _.).).).).).",
").).).!.B x.M.S.I.XXXXXXI.Z.| c.-X<X^.$.b D I ] ] @.&.&.] ] R J 8 < 9 e 5.r.0.1.8.q.p.i.}.,X`./ p d g.pXpXpXpXpXe.X.C.).).).).).",
").).).!.k.x.c.M.XX+X=X=XXXS.z.x.V !./.C G A I O.] ] O.O.O.] R J A 7 7 e 4.p.g.h.h.h.r.X.=./._./ p g.dXNXNXNXNXNXbXX._.).).).).).",
").).).<XoXn.N M.XX=X=XU.I.S.M.M.B R./.C L S F I R @.&.&.] O.R J [ P.;.Q 5.p.s.s.s.s.s.X.=.,X[...aXdX&X*X*X*X*X*X%XP.#X).).).).).",
").).).wXiX].N M.I.9XI.I.I.I.I.k.N '.(.l.` F D D Y O.-.&.O.] ] H *.BX;X^ 3.u.s.a.y.y.t./ =.^.[.:.bXMXU.D.A.S.S.I.XX9XyX0X).).).).",
").).).3XqX'.B x.D.+X=X+XI.I.I.k.m R.(.~.T.H S D Y ] @.@.] O.R J %.<X].^ 3.u.s.s.a.y.t./ =./.1XBXMX9XN.x.c.x.x.A.+X9XrXuXqX).).).",
").).).).).@XV.#.M.U.+XOXI.I. Xb.{ l.~./.Q.b S D Y O.] ] ] ] R L $.^.[.T 3.u.a.a.a.u.t./ =./.eXrX7X*XL.m._ _ z.b.U.MX9X6X4X).).).",
").).).).).eX7Xm.x.I.U.9XXXI.'.B.} #.l.~.Q.M F D Y ] ] ] ] O.R L $.^.'.T 3.u.a.a.y.y.t...=./.,X'. XoX&XY.r r 1 N L.MX*Xb.!.).).).",
").).).).).qXeXB.x.x.I.OXOXXX XM.| } C ~.Q.$.H D F Y R @.&.@.] b B ^.'.T 3.u.a.a.y.t.3...V.^.Q.V.S.I.*XY.N.z.z.N.U.*XU.B !.).).).",
").).).).).).(.l.x.N b.I.OX+X XM.| N C Q.Q.C H D D F R &.H.&.] 7 M ^.'.T 3.u.a.a.y.6.>..._.2XQ.v.Z.I.I.XX=X=X=X=XOXI.c.N !.).).).",
").).).).).).(.1XU.} } b.D.XX XB.} { B !.^.Q.C A Z F R O.&.@.Y < ` tX|.T t.a.s.a.y.3./ |.1X3XW.#.M.I.I.+XXXXXXXXXU.I.b.N W.).).).",
").).).).).).0XeX$XN { } M.A.I.M.| { N W.^.(.T.b D F R ] R R R < P bX}.P 0.a.a.a.y./ @.-XyX).R.M M.XX=X+XI.I.I.I.I.I.k.N W.).).).",
").).).).).).).0X,XB N } | c.I.M.#. .{ V R.(.T.S A F R Y F Y Y 8 7 ' P e ~ 5.a.a.y.3.[ ,X3X).R.N D.+X9X+XI.I.I.XXOXI.x.N !.).).).",
").).).).).).).).~.A.#.N { z.H.J.o.o.o._ C ^.T.b S F R Y F I Y Z - 3 9 e W 3.p.p.8./ @.@X).).'.' m.U.U.+XI.I.I.+XOXZ.x.N W.).).).",
").).).).).).).).3XyX].m ` ' pXr.h.h.r.q B ^.T.< A F Y Y F I ] F 8 & - e >.4.u.u.,./ [ ,X).).'.^ r  .U.OXI.I.I.+XU.c.} N !.(.).).",
").).).).).).).).3XwX1XL.J.aXs.s.w.s.w.0.o.T.T.l.M S J F D Y ] F 7 + % 4 e 4.8.8.>.E ` Q.).).`.^ q r I..XS.U.OX=XU.z.{ N !.(.).).",
").).).).).).).).(.).uXBXsXs.s.s.y.t.y.h.e.) l.(.C S D D D I ] F *   # # e ,.t.6.>.Q ` W.).(.`.E q r M.I.S.XX=X=XU.z.{ N !.).).).",
").).).).).).).).(.(.6XvXsXs.s.y.5.4.5.r.e.) T.(.C b D D D I R F 7 # # o = w 6.6.>.Q ` Q.<X`...y q r M.Z.b.Z.XXXXD.m N B !.).).).",
").).).).).).).).).).-XsXd.p.8.6.>.,.1.w.q.! =.~.k.M b Z D I Y F 8 - +   X = 6.6.>.Q ` W.@X&.<.t w z.M.M.| n.I.S.c.( { A.!.).).).",
").).).).).).).).).).;XsXs.t.6.,.>.q.g.p.5.e ) B R.R.b @ D D F D D 8 @   # e 6.6.>.Q ` W.[.@.1.s w r M.M.| n.S.x.} m C.tXqX).).).",
").).).).).).).).).).].i.d.w.q.1.8.q.w.u.5.e 0 b {.#Xb @ - Z D D D D @ X X = ,.4.>.Q ` W.@X..,.i w r z.x.} n.S.c.{ M .XuX0X).).).",
").).).).).).).).).).[...0.h.j.h.h.w.y.y.6.E 7 1 %XBX) @ * - D D D D - & X # w ,.>.! } ~.[...y t 6 r m x.} b.S.c.{ { l.).).).).).",
").).).).).).).).).).[.[ 0.u.a.a.a.a.u.u.8.W e 9 ' J.dXJ.+ @ D D Z F - & . X e E Q *.'.'.H.w w 6 r _ {  .} n.A.} _ m l.).).).).).",
").).).).).).).).).).[.*.i.t.t.y.u.u.a.u.8.4.W 9 0 ' mXdX  @ D D Z F - * X . 4 9 A _.2XC.~ t 2 O r z. .} } n.Z._ r N R.).).).).).",
").).).).).).).).).).2X7X:./ 2.6.y.y.u.a.u.t.>.e 5 5 q 5   + - A Z D Z - & + # # 7 |.BXG.~ t 2 O r } { } } | | n { %X<X).).).).).",
").).).).).).).).).).qXyXK.^ ~ 4.y.y.u.a.a.y.4.e 5 5 > 3 . o % - D D D D - #   + 7 H.vX9.w t 2 O ( } } } } { M n | eXwX).).).).).",
").).).).).).).).).).3X2X_.../ 4.y.y.y.u.a.y.6.W 5 5 0 , , O . 3 D D D D - #   X 3 q 9.y t t 2 O r } } } } ) 1 m k.2X).).).).).).",
").).).).).).).).).).).).#X`...3.4.t.y.u.u.y.8.4.<.e 5 3 : O   # - D D D 8 * + X # 2 y t t 2 6 O ( } } { _ ( n v. X(.).).).).).).",
").).).).).).).).).).).).uX6X=./ >.6.y.y.y.y.y.y.4.W 4 # O .   # * Z D D Z 8 * o   $ t t 2 # : r _ } } _ 0 n N :XeX).).).).).).).",
").).).).).).).).).).).).qX4X#XK.^ / 4.4.6.y.y.y.8.4.E 4 @ o.dX6 + - 8 D Z 8 * X   $ t $ = > 1 m _ ( ( n 1 v.#X<XqX).).).).).).).",
").).).).).).).).).).).).).0XeX-X*...~ W 2.t.t.t.t.8.,.W 6 dXVXe X + * 8 8 8 * #   $ ; # 3 0 r N r 1 1 n B .XuXqX).).).).).).).).",
").).).).).).).).).).).).).).0XwX7X`.R P Q ,.2.2.2.,.>.W >.w o.4 + X + * * * & % X # # % > > r r 1 1 n b.#XeX0X).).).).).).).).).",
").).).).).).).).).).).).).).).0XeX#XV.*.@.^ ~ E W >.>.>.<.w 4 4 % # # @ @ @ & & @ +   : : > 1 1 { #.k.'.eXwX).).).).).).).).).).",
").).).).).).).).).).).).).).).).3X).2XyX-X+.L q E >.>.>.>.>.W e e 4 * : @ @ & & @ @ @   O , 1 M .XyX2X(.0X).).).).).).).).).).).",
").).).).).).).).).).).).).).).).).).).qX4X'.].C.&.^ ! Q Q Q Q q q P ' C.m.*.1 < : @ : : 1 m.V.R.<XwX3X).).).).).).).).).).).).).",
").).).).).).).).).).).).).).).).).).).).).).wXiX`.` ) L ) K L ) m } ].iXiX6X$.< < : < b %.tXeX).(.).).).).).).).).).).).).).).).",
").).).).).).).).).).).).).).).).).).).).).).3XwX,XW.[.E.E.E.E.E.E.Q.<XwXwX2X!.R.R.R.R.R.,XqXqX).).).).).).).).).).).).).).).).).",
").).).).).).).).).).).).).).).).).).).).).).).).).).).).).).).).).(.).).).).).).).).).).).).).).).).).).).).).).).).).).).).).)."
};